<svg viewBox="0 0 24 24" fill="none" xmlns="http://www.w3.org/2000/svg">
    <g clip-path="url(#clip0_1_277)">
        <path d="M12.0001 0.599998L13.5383 8.082C13.6587 8.66796 13.9484 9.20572 14.3714 9.62872C14.7944 10.0517 15.3321 10.3414 15.9181 10.4618L23.4001 12L15.9181 13.5382C15.3321 13.6586 14.7944 13.9483 14.3714 14.3713C13.9484 14.7943 13.6587 15.332 13.5383 15.918L12.0001 23.4L10.4619 15.918C10.3415 15.332 10.0518 14.7943 9.62882 14.3713C9.20582 13.9483 8.66806 13.6586 8.0821 13.5382L0.600098 12L8.0821 10.4618C8.66806 10.3414 9.20582 10.0517 9.62882 9.62872C10.0518 9.20572 10.3415 8.66796 10.4619 8.082L12.0001 0.599998Z" fill="#E63030"/>
    </g>
    <defs>
        <clipPath id="clip0_1_277">
            <rect width="24" height="24" fill="white"/>
        </clipPath>
    </defs>
</svg>
